<svg width="20" height="22" viewBox="0 0 20 22" fill="none" xmlns="http://www.w3.org/2000/svg">
<path d="M14.3499 5.70942C14.3499 3.32335 12.4156 1.38902 10.0295 1.38902C8.88053 1.38419 7.77692 1.83722 6.96273 2.64797C6.14854 3.45872 5.69086 4.56041 5.69086 5.70942M14.2126 20.611H5.86477C2.79841 20.611 0.446004 19.5035 1.1142 15.0458L1.89223 9.00461C2.30413 6.78036 3.72289 5.9291 4.96774 5.9291H15.1462C16.4094 5.9291 17.7458 6.84443 18.2217 9.00461L18.9998 15.0458C19.5673 19 17.279 20.611 14.2126 20.611Z" stroke="white" stroke-width="1.5" stroke-linecap="round" stroke-linejoin="round"/>
<path d="M12.995 10.213H12.95" stroke="white" stroke-width="1.5" stroke-linecap="round" stroke-linejoin="round"/>
<path d="M7.1649 10.213H7.1189" stroke="white" stroke-width="1.5" stroke-linecap="round" stroke-linejoin="round"/>
</svg>
