<svg width="100" height="20" viewBox="0 0 100 20" fill="none" xmlns="http://www.w3.org/2000/svg">
<path d="M91.7718 8.31648H97.5016L92.8663 11.6843L94.6368 17.1335L90.0013 13.7656L85.3657 17.1335L87.1362 11.6843L82.501 8.31648H88.2308L90.0013 2.86697C90.5914 4.68347 91.1816 6.49998 91.7718 8.31648ZM90.0013 6.93865V12.2104L92.2436 13.8396L91.387 11.2036L93.6294 9.57468H90.8576L90.0013 6.93865Z" fill="#FF9900"/>
<path fill-rule="evenodd" clip-rule="evenodd" d="M10.0003 2.87125L11.7709 8.32062H17.5006L12.8653 11.6884L14.6359 17.1378L10.0003 13.77L5.365 17.1378L7.13562 11.6884L2.5 8.32062H8.22969L10.0003 2.87125Z" fill="#FF9900"/>
<path fill-rule="evenodd" clip-rule="evenodd" d="M30.0003 2.87125L31.7709 8.32062H37.5006L32.8653 11.6884L34.6359 17.1378L30.0003 13.77L25.365 17.1378L27.1356 11.6884L22.5 8.32062H28.2297L30.0003 2.87125Z" fill="#FF9900"/>
<path fill-rule="evenodd" clip-rule="evenodd" d="M50.0003 2.87125L51.7709 8.32062H57.5006L52.8653 11.6884L54.6359 17.1378L50.0003 13.77L45.365 17.1378L47.1356 11.6884L42.5 8.32062H48.2297L50.0003 2.87125Z" fill="#FF9900"/>
<path fill-rule="evenodd" clip-rule="evenodd" d="M70.0003 2.87125L71.7709 8.32062H77.5006L72.8653 11.6884L74.6359 17.1378L70.0003 13.77L65.365 17.1378L67.1356 11.6884L62.5 8.32062H68.2297L70.0003 2.87125Z" fill="#FF9900"/>
</svg>
